<svg xmlns="http://www.w3.org/2000/svg" viewBox="0 0 64 64" fill="none">
  <rect width="64" height="64" rx="18" fill="#172126"/>
  <path d="M17 32c0-8.284 6.716-15 15-15h7.5C47.508 17 54 23.492 54 31.5S47.508 46 39.5 46H32c-8.284 0-15-6.716-15-14Z" fill="#EDF1EC"/>
  <path d="M22 32c0-5.523 4.477-10 10-10h7.25C44.635 22 49 26.365 49 31.75S44.635 41.5 39.25 41.5H32c-5.523 0-10-4.477-10-9.5Z" fill="#2F5146"/>
  <path d="M29.5 26.5h9.75c2.9 0 5.25 2.35 5.25 5.25S42.15 37 39.25 37H29.5v-10.5Z" fill="#F7F4EE"/>
  <circle cx="39.5" cy="31.75" r="2.5" fill="#172126"/>
</svg>
